<svg xmlns="http://www.w3.org/2000/svg" width="347" height="158" viewBox="0 0 347 158"><path fill="#39A488" d="M115.86 6.48c0-1.4-.28-3.36-1.68-4.2-.84-.56-2.24-.56-3.36-.56-1.4.28-3.36 0-4.48 1.4-.56.56-.84 1.68-1.12 2.52-.56 1.96-1.12 3.92-1.4 5.6-1.12 5.32-2.24 10.36-2.8 15.68-2.8 16.8-4.48 33.88-5.32 50.96-1.12 23.52-1.68 47.32-.84 71.12l-2.24-2.24c-2.52-2.24-5.04-4.76-7.28-7.56-9.24-9.8-17.36-20.44-24.92-31.64C48.38 90.48 37.74 72 30.18 52.12c-2.24-6.44-4.2-12.88-5.6-19.6-.28-2.24-.56-4.2-.84-6.44-.28-1.96-.84-4.48-2.8-5.04h-.28l1.4-8.4c.28-1.96.84-3.92.84-6.16.28-1.4-.28-3.36-1.4-4.2-1.12-.56-2.24-.56-3.36-.56-1.68.28-3.64 0-4.48 1.4-.84.56-1.12 1.68-1.4 2.52-.56 1.96-.84 3.92-1.4 5.6-1.12 5.32-1.96 10.36-2.8 15.68a514.68 514.68 0 0 0-5.04 50.96c-1.4 24.92-1.96 49.56-.84 74.48 0 1.12.56 2.52 1.4 2.8 1.4.28 3.64-.84 3.92-2.24.56-2.52.28-5.32.56-7.84 0-4.76.28-9.52.56-14.28 1.12-17.36 2.24-35 3.92-52.36 1.12-10.64 2.52-21 3.92-31.64 2.8 9.24 7 18.2 11.48 26.88C36.9 90.76 48.1 107 60.42 121.84c9.8 11.76 19.88 23.24 32.2 32.48.84.28 2.24 1.12 3.08.28.28.28.56.28.84.56 1.4.28 3.64-.84 3.92-2.24.56-2.52.28-5.32.28-7.84l.84-14.28c.84-17.36 2.24-35 3.92-52.36 1.4-16.52 3.92-33.04 6.44-49.56 1.12-5.32 1.96-10.92 2.8-16.24.56-1.96.84-3.92 1.12-6.16zm0 0M188.94 122.4c-1.68-.56-3.64.28-5.04.84-3.92 2.52-15.12 4.48-22.4 3.64 1.4-4.48 1.68-8.12 1.68-12.6 0-5.32-1.12-11.2-5.32-15.4-2.8-3.08-8.12-5.32-12.88-5.04-3.36 0-7 1.68-8.68 3.92-1.4 1.96-2.24 4.2-2.52 6.44 0 .28-.28.28-.28.28-3.36 1.4-5.32 4.2-7.56 6.72-4.48 5.88-7.84 12.88-7.84 19.6 0 5.6 1.68 12.04 6.16 16.52 2.8 2.8 7.84 4.76 12.32 4.76 7 0 13.72-5.04 17.36-9.8 2.52-3.36 4.48-6.72 5.88-10.64 1.68.28 3.36.56 5.04.56 7.84 0 15.96-2.8 22.12-6.44.28-.28.56-.56 1.12-.84.56-.84 1.96-2.24.84-2.52zM155.9 114c0 3.64-.84 7.56-1.96 11.2-1.68-.84-3.08-1.4-4.48-2.52-3.92-2.8-5.6-7.28-7.28-11.48-1.12-2.52-1.12-5.32-.28-7.84.28-1.68 1.96-3.36 3.92-3.08 2.8 0 5.6 1.12 7 2.8 2.8 3.08 3.08 7.28 3.08 10.92zm-3.08 16.24c-1.12 2.24-2.24 4.48-3.64 6.72-2.8 3.92-7.28 8.68-12.6 8.68-2.8 0-5.32-1.68-7-3.36-2.52-3.36-3.36-7.56-3.36-11.48.28-5.6 3.08-11.48 6.72-16.24.84-.84 1.4-1.68 2.24-2.52 0 .28 0 .56.28.84 2.52 5.04 5.04 10.64 10.08 14.28 1.96 1.4 4.48 2.52 7.28 3.08zm0 0"/><path fill="#39A488" d="M246.06 67.52c.28-.84-.28-2.24-1.4-2.8-.56-.56-1.68-.28-2.52-.28l-3.92-.28-21.84-1.12-15.96-.84.84-4.48c.28-1.96.56-4.2 1.12-6.16.28-1.68.28-3.64-1.12-4.76-.56-.56-1.68-.56-2.52-.28-1.4.28-3.08.28-3.64 1.4-.84 1.12-1.12 2.8-1.4 3.92l-1.68 6.72-.56 3.36-23.24-1.12-15.96-.84h-5.6c-1.4-.28-3.08.28-3.64 1.68-.28.84-.28 1.68 0 2.52.28 1.12.28 2.8 1.4 3.36.84.84 2.24.84 3.64.84 2.52.28 5.04.56 7.56.56 7.56.56 15.4.56 22.96.56l11.2.28c-.56 3.64-1.4 7.56-1.96 11.2-1.68 10.08-3.36 20.16-3.92 30.24-.56 8.4-.84 16.8.56 24.92 1.12 5.6 3.08 11.48 7.28 15.4 3.36 3.36 8.4 4.76 13.16 4.76 5.6 0 11.2-3.36 15.68-7 7.28-6.16 12.32-14.84 15.96-23.52.28-1.12.56-2.52-.28-3.36-.84-.56-2.24 0-3.36.84-.84.56-.84 1.68-1.4 2.52-1.12 2.24-2.24 4.2-3.36 6.16-3.36 5.32-7.28 10.08-12.32 14-3.08 2.24-7 4.2-10.92 4.2-3.64 0-7.84-1.96-9.8-5.04-3.92-5.6-3.92-13.16-3.92-20.16 0-16.24 3.36-32.76 6.44-48.72l1.12-6.44c15.4 0 30.52-.28 45.64-.84.56-.28 1.4-.56 1.68-1.4zm0 0"/><path fill="#39A488" d="M292.54 119.32c0-.56 0-1.4-.28-1.68s-.56-.56-1.12-.28c-2.24.28-3.64 2.8-4.76 4.76l-4.2 7.56c-3.64 5.6-8.12 10.64-13.44 14.56-3.92 2.8-7.84 3.92-12.88 3.64-5.6 0-11.76-1.96-15.68-5.88 5.32-4.48 10.08-9.52 14-15.12 4.76-7 9.24-14.56 10.92-22.96.28-2.52-.56-5.6-2.24-7.56-2.52-3.36-7.28-5.6-11.48-5.6-5.32 0-10.36 3.64-14 7.56-6.44 7.28-10.64 17.36-10.64 27.16 0 17.36 11.48 29.68 29.12 29.4 7.56-.28 14.84-3.92 20.44-8.96 6.72-6.72 11.48-15.68 15.4-24.36.28-.84.56-1.4.84-2.24zm-35.28-16.8c-1.12 8.12-5.6 15.68-10.36 22.4-2.8 4.48-6.16 8.4-9.8 12.04-1.68-3.36-2.52-7.56-2.24-11.48 0-6.72 2.8-13.44 6.44-19.04 2.52-3.36 5.88-7.56 10.08-7.84 1.68 0 3.36.84 4.48 1.68.84.56 1.68 1.4 1.4 2.24zm0 0"/><path fill="#39A488" d="M344.9 136.96c-.28-.84-1.68-1.4-2.52-1.4-.84 0-1.4 1.12-1.96 1.68-1.4 1.12-2.52 2.24-3.92 3.08-5.32 3.64-11.48 6.16-17.64 7.28-.84 0-1.68.28-2.52.28 2.52-3.64 3.64-8.12 3.92-12.6.28-8.12-3.08-16.24-7-23.24-1.12-2.52-2.8-5.04-4.2-7.28-.56-.56-1.12-1.4-1.68-1.96.56-1.4 1.68-3.08 1.96-4.76 0-.84-.56-1.96-1.4-2.52-.56-.28-1.4-.56-2.24-.56-1.12-.28-2.8-.84-3.92-.28-1.96 1.68-2.24 4.76-3.36 7.28-1.68 4.2-10.64 27.72-14.28 34.44h-1.12c-.84.84-1.4 1.96-1.4 3.08 0 .84 1.12 1.4 1.96 2.24 1.12 1.12 1.12 1.4 2.24 2.52 2.8 3.08 5.32 5.6 8.96 7.56 3.08 1.4 6.44 2.24 9.52 2.52h.84c6.16.56 12.32 0 18.2-1.96 8.12-2.52 15.96-7.56 21.28-14.28.28-.28.56-.84.28-1.12zm-32.76-1.68c0 3.36-.56 6.72-2.52 9.52-1.12 1.68-3.36 2.8-5.32 2.8-3.08 0-6.16-.56-8.68-2.24-3.08-1.4-5.6-3.92-7.84-6.16 5.6-8.12 10.64-16.52 14.56-25.48l.84-1.68c.84 1.4 1.68 2.8 2.24 4.2 3.36 5.88 6.44 12.32 6.72 19.04zm0 0"/></svg>