<svg xmlns="http://www.w3.org/2000/svg" width="282" height="284" viewBox="0 0 282 284"><circle fill="#F3F2F1" cx="141" cy="141" r="141"/><g clip-path="url(#a)"><clipPath id="a"><circle cx="141" cy="141" r="141"/></clipPath><path fill="#ECA043" d="M109 0h32v156h-32z"/><path fill="#F6AE60" d="M141 0h32v156h-32z"/><path fill="#F4C5AE" d="M125.5 138l16.02 18h-32.04z"/><path fill="#F4D0BD" d="M156.5 138l16.02 18h-32.04z"/><g clip-path="url(#b)"><clipPath id="b"><path d="M109 78h32v156h-32z"/></clipPath><path fill="#F4C5AE" d="M141 220l32.04-64.5h-64.08z"/></g><g clip-path="url(#c)"><clipPath id="c"><path d="M141 78h32v156h-32z"/></clipPath><path fill="#F4D0BD" d="M141 220l32.04-64.5h-64.08z"/></g><g clip-path="url(#d)"><clipPath id="d"><path d="M109 197h32v37h-32z"/></clipPath><path fill="#3AA488" d="M141 220l32.04-64.5h-64.08z"/></g><g clip-path="url(#e)"><clipPath id="e"><path d="M141 197h32v37h-32z"/></clipPath><path fill="#51BFA6" d="M141 220l-32.04-64.5h64.08z"/></g></g><ellipse fill="#E2E1E0" cx="140.5" cy="236.5" rx="10.5" ry="3.5"/></svg>