<svg xmlns="http://www.w3.org/2000/svg" width="370" height="162" viewBox="0 0 370 162"><g fill="#39A488"><path d="M183.71 9.72c0-2.8.56-6.72-1.68-8.68-.84-.84-2.52-.56-3.36 0-1.96 1.12-3.92 1.96-4.48 3.92-1.96 4.48-1.96 9.52-2.8 14.28-1.68 9.24-3.64 18.48-5.88 27.44-5.6 23.52-12.32 46.76-23.52 68.04-4.48 8.96-10.08 17.92-17.64 24.64-4.76 4.2-11.2 7.56-17.64 7.56-3.36.28-7.28-.84-10.08-2.8-3.92-2.8-6.72-7.28-8.68-11.48-1.4-3.64-2.52-7.28-3.36-10.92.28-1.12.84-2.24 1.4-3.08 6.44-16.52 10.36-33.88 12.88-51.24 1.68-12.88 2.8-26.04 0-38.64-.28-1.12-.56-1.96-.84-3.08-.56-1.12-2.24-3.08-3.36-2.24-.28.56-.56 1.12-.84 1.96-1.4 0-2.8 1.12-3.64 1.96-1.12 1.4-1.68 3.08-2.24 4.76-1.68 3.64-3.36 7.28-4.76 11.2-5.32 14.84-8.68 30.52-9.24 46.48-.28 10.08.28 20.72 1.96 30.8-.56 1.4-1.12 2.8-1.96 3.92-4.2 8.12-9.52 15.96-16.8 21.28-3.92 2.8-9.24 5.04-14.28 4.76-3.92 0-8.4-1.4-11.48-3.92-5.6-4.2-9.24-10.64-11.76-17.08-6.44-15.96-8.12-33.88-7.84-51.24 0-14.56 1.12-29.12 4.48-43.12.84-4.76 2.52-9.24 3.92-13.72 1.12-3.08 3.08-7 1.4-9.8-.56-1.12-1.96-1.4-3.08-1.4-1.96.28-3.64.84-5.32 1.96-.56.28-1.12 1.4-1.4 2.24-.84 1.4-1.4 2.8-1.96 4.2a85.463 85.463 0 0 0-4.76 14.28C1.43 47.8.59 63.2.59 78.32c0 13.44 1.4 26.88 4.48 40.04 1.96 7.56 4.76 15.4 8.68 22.4 3.36 6.16 8.12 11.76 14.28 15.4 4.48 2.52 9.8 3.92 14.84 3.92 7.84 0 15.96-3.64 21.84-8.68 5.88-5.04 10.64-11.48 14.28-18.48 1.12 2.8 2.24 5.6 3.64 8.12 2.52 4.48 6.16 8.96 10.64 11.48 3.92 2.52 8.96 3.64 13.44 3.92 6.44 0 12.6-1.96 17.92-5.32 8.68-5.04 15.4-13.44 21-22.12 13.16-19.88 21-43.12 27.44-66.08 3.64-13.16 6.72-26.32 8.68-39.48.84-4.48 1.68-8.96 1.96-13.72zM94.39 38c.28 8.68-.56 17.64-1.96 26.04-1.96 14.28-5.32 28.84-10.36 42.28-.56-5.6-.56-11.2-.84-16.52 0-19.6 4.76-39.48 12.6-57.4.28 1.96.56 3.64.56 5.6zm0 0M239.15 125.92c-1.68-.56-3.64.28-5.04.84-3.92 2.52-15.12 4.48-22.4 3.64 1.4-4.48 1.68-8.12 1.68-12.6 0-5.32-1.12-11.2-5.32-15.4-2.8-3.08-8.12-5.32-12.88-5.04-3.36 0-7 1.68-8.68 3.92-1.4 1.96-2.24 4.2-2.52 6.44 0 .28-.28.28-.28.28-3.36 1.4-5.32 4.2-7.56 6.72-4.48 5.88-7.84 12.88-7.84 19.6 0 5.6 1.68 12.04 6.16 16.52 2.8 2.8 7.84 4.76 12.32 4.76 7 0 13.72-5.04 17.36-9.8 2.52-3.36 4.48-6.72 5.88-10.64 1.68.28 3.36.56 5.04.56 7.84 0 15.96-2.8 22.12-6.44.28-.28.56-.56 1.12-.84.56-.84 1.96-2.24.84-2.52zm-33.04-8.4c0 3.64-.84 7.56-1.96 11.2-1.68-.84-3.08-1.4-4.48-2.52-3.92-2.8-5.6-7.28-7.28-11.48-1.12-2.52-1.12-5.32-.28-7.84.28-1.68 1.96-3.36 3.92-3.08 2.8 0 5.6 1.12 7 2.8 2.8 3.08 3.08 7.28 3.08 10.92zm-3.08 16.24c-1.12 2.24-2.24 4.48-3.64 6.72-2.8 3.92-7.28 8.68-12.6 8.68-2.8 0-5.32-1.68-7-3.36-2.52-3.36-3.36-7.56-3.36-11.48.28-5.6 3.08-11.48 6.72-16.24.84-.84 1.4-1.68 2.24-2.52 0 .28 0 .56.28.84 2.52 5.04 5.04 10.64 10.08 14.28 1.96 1.4 4.48 2.52 7.28 3.08zm0 0"/><path d="M301.03 141.88c.28-.56.28-1.68-.28-1.96-1.12-.56-2.52 0-3.64.84-1.68 1.12-2.8 3.36-4.2 4.76-3.92 3.36-8.96 7-14.28 7-3.64-.28-7.56-1.96-9.8-4.76-2.52-3.36-3.08-8.12-3.08-12.6.28-8.96 1.4-17.92 4.76-26.32.56-1.96 0-3.92-1.68-5.04s-3.64-.84-5.32.28c-3.64 3.08-9.52 4.48-14.28 3.64.28 0 0-.28 0-.56.56-1.68 1.12-3.36 1.4-5.32.84-2.24 1.4-4.76 1.12-7.28-.28-1.4-1.4-2.8-2.8-3.36-2.24-.84-5.32.84-6.44 2.8-2.52 4.2-2.8 9.8-1.4 14.56l-3.36 10.08c-3.08 7.56-6.16 15.4-10.64 22.4-1.4 1.96-2.52 3.92-4.2 5.6-.84 1.12-1.96 1.68-2.52 3.08-.28.56.28 1.12.84 1.4.56.28 1.4.28 1.96.28.56.28.84-.28 1.4-.56.84-.56 1.4-1.4 2.24-1.96 1.96-1.96 3.92-4.48 5.6-7 5.32-7 8.96-15.12 12.32-23.24l1.68-3.36c.28 0 .56.28 1.12.28 3.92.84 8.4.56 12.6-.84a84.049 84.049 0 0 0-1.68 20.44c0 6.16 1.68 13.16 5.88 17.64 3.64 3.64 9.24 5.6 14.28 5.6 8.68-.28 17.08-7.28 21.56-14.56.28-.56.56-1.4.84-1.96zm0 0"/><path d="M369.06 134.88c0-.28 0-1.12-.56-1.12-1.4-.28-2.8.56-3.64 1.68-5.88 7-12.6 14.84-22.68 14.84-10.64 0-17.64-5.88-20.72-15.68 7-2.24 13.44-6.72 18.76-11.76 3.92-4.2 7.56-9.8 7.56-15.4 0-3.36-1.12-7.28-3.36-9.8-1.4-1.68-3.92-3.08-6.16-3.08-3.91 0-8.12 1.68-11.2 3.64-5.88 3.92-10.08 9.52-14 15.12-4.2 5.88-7.56 12.32-10.64 18.76 1.96-20.44 5.32-40.6 8.68-60.76 1.68-10.08 3.64-20.16 5.6-30.24.56-3.08 1.12-6.44 1.68-9.8.28-1.96.84-4.48-.28-6.44-.56-.84-1.68-.84-2.52-.56-1.68.56-2.8 1.68-3.92 3.08-1.4 1.4-1.4 3.36-1.96 5.32-.84 3.08-1.4 6.44-2.24 9.8-1.96 9.52-3.92 19.32-5.6 29.12-4.76 28.28-8.68 56.56-9.24 85.12 0 2.24 1.68 4.2 3.92 4.48 2.24.28 4.48-1.12 5.04-3.36 3.64-14 9.24-27.44 17.08-39.48 2.52-4.2 5.6-8.4 9.52-11.76 2.52-2.8 6.16-5.04 10.08-5.32.84 0 1.4 1.12 1.69 1.68.84 1.4 1.39 3.08 1.39 4.48 0 4.48-3.36 8.68-6.72 11.76-4.48 4.48-10.08 8.68-16.24 10.08-1.12.28-1.96.84-2.52 1.96-.56.84-.84 1.68-.56 2.8 3.64 13.16 12.6 21.56 26.6 21.56 9.8-.28 18.48-7 24.64-15.96.56-.56 1.12-1.4 1.4-2.24.56-.84.84-1.68 1.12-2.52zm0 0"/></g></svg>