<svg xmlns="http://www.w3.org/2000/svg" width="150" height="45" viewBox="0 0 150 45"><path fill="#F6F9F8" d="M.17 44.58c-.23-9.91 6.24-13.87 17.06-13.4 3.95-12.6 15.92-14.2 30.1-11.97C53.03 4 81.36-5.57 100.01 4.85c6.53 3.65 9.89 9.05 15.05 13.88 18.19-7.03 38.13 7.15 34.11 25.85H.17zm0 0"/><path fill="#D8E5E1" d="M80.52 29.98c4.02 0 7.27-3.11 7.27-6.94H73.24c0 3.83 3.26 6.94 7.28 6.94zm0 0"/><g clip-path="url(#a)"><clipPath id="a"><path d="M49.34 16.35h22.61v8.38H49.34v-8.38zm0 0"/></clipPath><path stroke="#D8E5E1" stroke-width="2" stroke-miterlimit="10" fill="none" d="M65.92 20.62a6.527 6.527 0 0 1 0 9.38c-2.65 2.59-6.95 2.59-9.6 0a6.545 6.545 0 0 1 0-9.38c2.65-2.59 6.95-2.59 9.6 0zm0 0"/></g><g clip-path="url(#b)"><clipPath id="b"><path d="M89.32 16.38h21.63v8.38H89.32v-8.38zm0 0"/></clipPath><path stroke="#D8E5E1" stroke-width="2" stroke-miterlimit="10" fill="none" d="M105.18 20.65c2.53 2.59 2.53 6.8 0 9.39a6.394 6.394 0 0 1-9.18 0c-2.53-2.59-2.53-6.8 0-9.39a6.394 6.394 0 0 1 9.18 0zm0 0"/></g></svg>