<svg height="41" width="41" xmlns="http://www.w3.org/2000/svg" viewBox="0 0 41 41"><path fill="#262626" fill-rule="evenodd" d="M40.45 4.83c-.73 1.37-2.61 2.93-3.48 3.99-.67.82-.93.99-.89 1.57.54-.02 1.03-.09 1.25-.25.55-.39 1.02-.46 1.73-.23.7.23.73 1.28.62 1.48.19.55.09 1 .09 1s-.27-.29-.52-.47c-.23-.17-.55-.14-.55-.14s-.43.24-1.06.71c-.63.46-1.02.39-1.65.93-.63.55-2.75 1.49-3.85 1.49s-2.76-.08-4.09.23c-1.34.31-3.17.86-4.43.86-1.25 0-1.35-.37-1.6-.84-.35-.65 1.94-.68 3.04-1 1.1-.31.84-.47 2.89-1.77-.01.01-4.14-2.04-3.44-5-.49-.02-1.55-.28-1.57-.79 0-.15.65-.24.82-.23-.41-.13-.82-.37-.82-.71 0-.38.6-.19 1.03-.19-.28-.03-1.29-.71-1.17-1.04.13-.35.78.14 1.15.13-.33-.08-.88-.47-1.13-.76-.16-.18-.32-.65-.04-.65.21-.01.52.08.71.14-.41-.12-.88-.46-.84-.94.05-.45.69.25.86.31-.27-.28-1.02-1.1-.69-1.59.11-.16.75.58.9.67-.12-.12-1.06-1.58-.59-1.61.14-.01.68.9.84 1.12.14.17.31.48.47.61-.15-.21-1.01-1.68-.62-1.86.18-.08 1.32 2.11 1.47 2.43-.18-.41-.78-2.2-.17-2.06.13.03.19.79.23.95.25.9.69 1.83 1.36 2.5.79.78 2.44 1.8 3.93 3.05.68.56 1.48 1.58 2.14 2.38.16-.4.37-.81.56-1.2.25-.49.7-1.76 1.15-1.92.35-.12.35.29.47.39.04-.2-.49-1.48.22-1.98.19-.13.65.46.73.71-.13-.58-.35-1.67.09-1.89.31-.16.56.27.78.71-.11-.32-.23-.64-.27-.99-.04-.27-.13-.72.12-.93.57-.46.55.44.96 1.09-.1-.5-.18-.79-.18-1.23 0-.3.05-.77.33-.95.69-.43.58 1.23.74 1.69.15-.6 0-1.25.17-1.75.1-.32.23-.96.7-.93.2.02.26.19.24.38-.05.4-.05.65-.05.94.01.25.15 1.15.14 1.58.06-.49.26-1.54.33-1.79.09-.29.56-.9.75-.57.11.18.13.7.15.9.01.22.05.45.07.67.08.92-.09 1.83-.53 2.65zM9.43 36.51c-.42.52-.58.62-.56.99.34-.02.65-.06.79-.16.35-.24.64-.29 1.09-.15.45.15.46.8.4.93.11.34.05.62.05.62s-.17-.17-.33-.29c-.14-.11-.35-.09-.35-.09s-.27.15-.66.44c-.4.3-.65.25-1.05.59-.39.34-1.73.93-2.43.93-.7 0-1.74-.05-2.58.14-.85.2-2.01.54-2.8.54s-.86-.23-1.01-.52c-.22-.41 1.22-.43 1.92-.63.7-.19.53-.29 1.83-1.11-.01.01-2.62-1.27-2.18-3.12-.31-.02-.97-.18-.99-.5 0-.09.41-.15.52-.14-.26-.08-.52-.23-.52-.44 0-.24.38-.12.65-.12-.17-.02-.82-.44-.74-.65.09-.22.49.09.73.08-.21-.05-.56-.3-.71-.47-.11-.12-.21-.41-.03-.41.13-.01.33.05.45.09-.26-.08-.56-.29-.53-.59.03-.28.43.15.54.19-.17-.17-.64-.69-.43-.99.07-.1.47.36.56.42-.07-.08-.67-.99-.37-1.01.09-.01.43.56.53.7.09.11.2.3.3.38-.1-.13-.64-1.05-.39-1.16.11-.05.83 1.32.92 1.52-.11-.26-.49-1.38-.1-1.29.08.02.12.5.14.59.16.57.44 1.15.86 1.57.5.49 1.54 1.12 2.49 1.9.42.35.93.99 1.34 1.49.1-.25.24-.51.36-.75.15-.31.45-1.1.73-1.2.22-.08.21.18.29.25.03-.13-.31-.93.14-1.24.12-.08.41.28.46.44-.08-.36-.22-1.04.06-1.18.2-.1.35.17.49.44-.07-.2-.14-.4-.17-.61-.02-.18-.08-.46.08-.59.36-.28.35.28.61.69-.07-.32-.12-.5-.12-.78 0-.18.03-.47.21-.58.44-.28.36.76.47 1.05.09-.38 0-.78.1-1.1.07-.19.15-.59.45-.57.12 0 .16.11.15.23-.03.25-.03.41-.03.59 0 .15.09.71.08.99.04-.31.17-.97.22-1.12.05-.18.34-.56.47-.36.07.11.08.44.09.57.01.13.03.27.05.41a2.9 2.9 0 0 1-.34 1.66c-.46.85-1.65 1.83-2.2 2.49z"/></svg>